<svg width="16" height="16" viewBox="0 0 16 16" fill="none" xmlns="http://www.w3.org/2000/svg">
<g clip-path="url(#clip0_407_176)">
<path d="M7.01751 0C6.44852 0.245287 5.99072 0.562062 5.58523 0.918844C5.74873 1.22709 5.91878 1.536 6.08882 1.84687C6.54662 1.25202 6.89325 0.595511 7.01751 0ZM1.843 0.952948C1.48525 0.959507 1.11574 1.0087 0.730527 1.12281C1.38454 1.80162 2.46627 2.26596 3.48913 2.4109C3.35114 1.9741 3.22295 1.54059 3.10523 1.11101C2.69713 1.01132 2.27922 0.947046 1.843 0.952948ZM4.31776 1.02312C5.79451 6.2286 8.88797 12.1837 12.6878 17.5223C16.7753 23.2544 21.6804 28.2782 26.1276 31H30.8365C20.0584 24.5071 10.039 12.0066 4.31776 1.02312ZM8.60675 1.06247C7.73692 1.45402 7.06983 1.98853 6.50084 2.5906C6.72321 2.98083 6.94557 3.37237 7.17447 3.76457C7.87426 2.92574 8.43017 1.94131 8.60675 1.06247ZM11.0004 1.78063C9.54852 2.48173 8.57405 3.5488 7.73692 4.70637C8.00506 5.1471 8.27321 5.58586 8.55443 6.03184C9.71857 4.85131 10.7257 3.20448 11.0004 1.78063ZM1.82207 3.10544C1.34399 3.10544 0.849557 3.15988 0.33289 3.28646C1.26224 4.082 2.86129 4.60275 4.2903 4.69588C4.11894 4.24924 3.9574 3.80523 3.80502 3.36385C3.16671 3.21104 2.51139 3.10348 1.82207 3.10544ZM13.2437 3.72719C11.4255 4.4355 10.2679 5.71703 9.2019 7.04185C9.4308 7.39601 9.66624 7.75016 9.90169 8.10432C11.3667 7.06808 12.7989 5.29073 13.2437 3.72719ZM15.0814 5.42846C13.0213 6.3073 11.7722 7.72393 10.6473 9.20615C10.9285 9.61277 11.2162 10.0194 11.504 10.4195C13.1586 9.19303 14.7086 7.15334 15.0814 5.42846ZM2.72395 5.53995C1.83449 5.54651 0.928038 5.68424 0 6.04496C1.35707 6.89756 3.52903 7.27795 5.29747 7.11399C5.08295 6.63522 4.8789 6.16301 4.68401 5.6908C4.0954 5.60554 3.50222 5.54651 2.90184 5.53995H2.72395ZM16.9781 7.73705C14.8395 8.64868 13.5772 10.144 12.4196 11.6853C12.7008 12.0656 12.9886 12.446 13.2764 12.8199C14.9833 11.6131 16.5922 9.50784 16.9781 7.73705ZM4.85928 7.95348C3.43812 7.96004 2.01631 8.11744 0.637658 8.8979C2.17916 9.56686 4.53816 9.57342 6.20654 9.04874C6.02996 8.68803 5.85338 8.32075 5.68333 7.96004C5.50675 7.95348 5.32363 7.95348 5.14378 7.95348H4.85928ZM19.1886 9.50784C16.8669 10.5441 15.415 12.1903 14.1331 13.9217C14.5255 14.4267 14.931 14.9317 15.343 15.4302C17.1546 13.8692 18.7766 11.5213 19.1886 9.50784ZM6.46814 10.5703C4.71278 10.5638 2.93127 10.7212 1.07781 11.7443C2.79654 12.5838 5.65063 12.551 7.69114 11.8492C7.44916 11.4229 7.22025 11.0032 6.99135 10.5769C6.81477 10.5703 6.64473 10.5703 6.46814 10.5703ZM21.9224 11.7049C19.3325 12.8658 17.8283 14.7677 16.4287 16.7222C16.808 17.1616 17.1873 17.601 17.5732 18.0339C19.581 16.4992 21.4711 13.902 21.9224 11.7049ZM7.51456 12.9773C5.76181 12.9773 3.97572 13.1281 2.12357 14.1512C3.9319 15.0301 6.99135 14.9579 9.0384 14.1447C8.80295 13.7643 8.57405 13.3773 8.34515 12.9904C8.07046 12.9838 7.79578 12.9773 7.51456 12.9773ZM24.6234 13.5282C21.7785 14.8268 20.1304 16.9648 18.5935 19.1619C19.0316 19.6276 19.4698 20.0932 19.9146 20.5523C22.0989 18.8406 24.1329 15.9679 24.6234 13.5282ZM27.5795 15.3318C24.3684 16.8533 22.6614 19.2537 21.0133 21.6607C21.4515 22.0936 21.8962 22.5264 22.3409 22.9462C24.8065 21.1688 27.1479 17.9617 27.5795 15.3318ZM9.86245 15.4498C7.44916 15.5482 5.01886 15.7515 2.61407 17.2993C4.85928 18.2044 8.41055 17.9421 10.8304 16.9189C10.5034 16.4336 10.1764 15.9417 9.86245 15.4498ZM30.4964 16.9648C27.161 18.7028 25.4278 21.4705 23.734 24.2185C24.2179 24.6514 24.7084 25.0777 25.2055 25.4909C27.6973 23.4971 30.0582 19.9162 30.4964 16.9648ZM11.9487 18.5061C9.30654 18.7225 6.63819 18.9258 4.07186 20.7425C6.54662 21.6082 10.4838 21.0442 12.8186 19.6997C12.5243 19.3062 12.2365 18.9062 11.9487 18.5061ZM31 21.0705C28.8483 22.7494 27.8542 24.4546 26.5266 26.5665C27.1021 27.019 27.6776 27.4584 28.2597 27.8782C29.4042 26.9337 30.104 25.7073 31 24.3825V21.0705ZM14.1789 21.4443C11.4255 22.0739 8.65907 22.7494 6.2654 25.0252C8.97954 25.5433 12.9101 24.4809 15.3038 22.815C14.9245 22.369 14.5451 21.9099 14.1789 21.4443ZM16.5006 24.1923C13.7734 25.117 11.0331 26.1205 8.73101 28.7701C11.4844 29.0849 15.3954 27.5634 17.7563 25.5499C17.3312 25.1105 16.9127 24.6514 16.5006 24.1923ZM19.4698 27.2682C16.6511 27.9831 13.8388 28.7832 11.3928 31H16.0101C17.874 30.5081 19.6857 29.6883 21.0395 28.7045C20.5162 28.2454 19.993 27.7667 19.4698 27.2682ZM22.5044 29.9178C21.4842 30.2392 20.4574 30.5737 19.4568 31H23.9563C23.4724 30.659 22.9884 30.2982 22.5044 29.9178Z" fill="#8C0327"/>
</g>
<defs>
<clipPath id="clip0_407_176">
<rect width="16" height="16" fill="white"/>
</clipPath>
</defs>
</svg>
