<svg width="48" height="48" viewBox="0 0 791 789" fill="none" xmlns="http://www.w3.org/2000/svg">
    <path
        d="M178.973 0C164.462 6.2382 152.786 14.2945 142.445 23.3682C146.614 31.2077 150.951 39.0638 155.288 46.97C166.964 31.8415 175.804 15.1452 178.973 0ZM47.0034 24.2356C37.8796 24.4024 28.4555 25.6534 18.6312 28.5556C35.3109 45.8191 62.8991 57.6283 88.9861 61.3145C85.4667 50.2059 82.1975 39.1806 79.1952 28.2554C68.787 25.7201 58.1287 24.0855 47.0034 24.2356ZM110.119 26.0203C147.782 158.407 226.677 309.859 323.586 445.631C427.834 591.412 552.932 719.178 666.354 788.399H786.447C511.566 623.27 256.033 305.355 110.119 26.0203ZM219.505 27.0211C197.321 36.9789 180.307 50.5728 165.796 65.8848C171.467 75.8092 177.138 85.7669 182.976 95.7414C200.823 74.4081 215.001 49.3719 219.505 27.0211ZM280.552 45.2853C243.523 63.1159 218.671 90.2538 197.321 119.693C204.159 130.902 210.998 142.061 218.17 153.403C247.86 123.38 273.547 81.4969 280.552 45.2853ZM46.4696 78.9783C34.2768 78.9783 21.6669 80.3627 8.48996 83.5819C32.1918 103.814 72.9736 117.058 109.419 119.427C105.049 108.068 100.929 96.7755 97.0424 85.5501C80.763 81.6637 64.05 78.9283 46.4696 78.9783ZM337.764 94.7907C291.394 112.805 261.871 145.397 234.683 179.09C240.521 188.097 246.526 197.104 252.53 206.111C289.893 179.757 326.421 134.555 337.764 94.7907ZM384.634 138.058C332.093 160.409 300.234 196.437 271.545 234.133C278.718 244.474 286.057 254.816 293.396 264.99C335.595 233.799 375.126 181.925 384.634 138.058ZM69.4709 140.893C46.7865 141.06 23.6685 144.563 0 153.737C34.6104 175.42 90.0036 185.094 135.105 180.925C129.635 168.748 124.43 156.739 119.46 144.73C104.448 142.561 89.3197 141.06 74.0078 140.893H69.4709ZM433.005 196.77C378.462 219.955 346.27 257.985 316.747 297.182C323.92 306.856 331.259 316.53 338.598 326.038C382.132 295.347 423.164 241.805 433.005 196.77ZM123.93 202.275C87.6851 202.441 51.4235 206.444 16.2627 226.293C55.5767 243.307 115.74 243.473 158.29 230.13C153.787 220.956 149.283 211.615 144.946 202.441C140.443 202.275 135.773 202.275 131.186 202.275H123.93ZM489.382 241.805C430.169 268.159 393.14 310.025 360.448 354.06C370.456 366.903 380.797 379.746 391.305 392.423C437.508 352.725 478.874 293.012 489.382 241.805ZM164.962 268.827C120.194 268.66 74.7584 272.663 27.4881 298.683C71.3223 320.033 144.113 319.199 196.153 301.352C189.982 290.51 184.144 279.835 178.306 268.993C173.802 268.827 169.466 268.827 164.962 268.827ZM559.103 297.682C493.052 327.205 454.688 375.576 418.994 425.282C428.668 436.457 438.342 447.633 448.183 458.641C499.39 419.611 547.594 353.559 559.103 297.682ZM191.65 330.041C146.948 330.041 101.396 333.877 54.1589 359.898C100.278 382.248 178.306 380.414 230.513 359.731C224.509 350.057 218.671 340.216 212.833 330.375C205.827 330.208 198.822 330.041 191.65 330.041ZM627.99 344.052C555.434 377.078 513.401 431.453 474.203 487.33C485.379 499.173 496.554 511.016 507.896 522.691C563.607 479.157 615.48 406.1 627.99 344.052ZM703.382 389.921C621.485 428.618 577.951 489.666 535.918 550.88C547.094 561.889 558.436 572.897 569.778 583.572C632.661 538.37 692.374 456.807 703.382 389.921ZM251.53 392.923C189.982 395.425 128 400.596 66.6687 439.96C123.93 462.978 214.501 456.306 276.216 430.286C267.876 417.943 259.536 405.433 251.53 392.923ZM777.774 431.453C692.707 475.655 648.506 546.043 605.306 615.931C617.649 626.939 630.159 637.781 642.835 648.289C706.385 597.583 766.598 506.512 777.774 431.453ZM304.738 470.651C237.352 476.155 169.299 481.326 103.848 527.528C166.964 549.546 267.375 535.201 326.922 501.008C319.416 491 312.077 480.825 304.738 470.651ZM790.617 535.868C735.741 578.568 710.388 621.935 676.528 675.644C691.206 687.153 705.884 698.328 720.729 709.003C749.919 684.985 767.766 653.794 790.617 620.101V535.868ZM361.616 545.376C291.394 561.388 220.839 578.568 159.791 636.447C229.012 649.624 329.257 622.603 390.305 580.236C380.63 568.894 370.956 557.218 361.616 545.376ZM420.828 615.264C351.274 638.782 281.386 664.302 222.674 731.688C292.895 739.694 392.64 700.997 452.854 649.791C442.012 638.615 431.337 626.939 420.828 615.264ZM496.554 693.491C424.665 711.672 352.942 732.021 290.56 788.399H408.319C455.856 775.889 502.059 755.039 536.586 730.02C523.242 718.344 509.898 706.168 496.554 693.491ZM573.948 760.877C547.928 769.05 521.741 777.557 496.221 788.399H610.977C598.634 779.725 586.291 770.551 573.948 760.877Z"
        fill="#8C0327" />
</svg>