<svg width="856" height="856" viewBox="0 0 856 856" fill="none" xmlns="http://www.w3.org/2000/svg">
<rect width="856" height="856" fill="white"/>
<rect x="0.5" y="0.5" width="853" height="853" stroke="black"/>
<path d="M212.332 35.5779C197.821 41.8161 186.145 49.8724 175.804 58.9461C179.974 66.7856 184.311 74.6417 188.647 82.5479C200.323 67.4194 209.163 50.723 212.332 35.5779ZM80.3627 59.8135C71.2389 59.9803 61.8149 61.2312 51.9906 64.1335C68.6703 81.397 96.2585 93.2062 122.346 96.8924C118.826 85.7837 115.557 74.7585 112.555 63.8333C102.146 61.298 91.4881 59.6633 80.3627 59.8135ZM143.479 61.5982C181.141 193.985 260.036 345.436 356.945 481.209C461.193 626.99 586.291 754.756 699.713 823.977H819.807C544.925 658.848 289.393 340.933 143.479 61.5982ZM252.864 62.599C230.68 72.5567 213.667 86.1507 199.155 101.463C204.827 111.387 210.498 121.345 216.336 131.319C234.183 109.986 248.361 84.9497 252.864 62.599ZM313.912 80.8632C276.883 98.6938 252.03 125.832 230.68 155.271C237.519 166.48 244.357 177.639 251.53 188.981C281.22 158.958 306.906 117.075 313.912 80.8632ZM79.829 114.556C67.6361 114.556 55.0263 115.941 41.8493 119.16C65.5512 139.392 106.333 152.636 142.778 155.004C138.408 143.646 134.288 132.353 130.402 121.128C114.122 117.242 97.4094 114.506 79.829 114.556ZM371.123 130.369C324.754 148.383 295.23 180.975 268.043 214.668C273.88 223.675 279.885 232.682 285.89 241.689C323.252 215.335 359.781 170.133 371.123 130.369ZM417.993 173.636C365.452 195.986 333.594 232.015 304.905 269.711C312.077 280.052 319.416 290.393 326.755 300.568C368.955 269.377 408.486 217.503 417.993 173.636ZM102.83 176.471C80.1459 176.638 57.0279 180.141 33.3594 189.315C67.9697 210.998 123.363 220.672 168.465 216.502C162.994 204.326 157.79 192.317 152.819 180.308C137.808 178.139 122.679 176.638 107.367 176.471H102.83ZM466.364 232.348C411.821 255.533 379.63 293.563 350.107 332.76C357.279 342.434 364.618 352.108 371.957 361.616C415.491 330.925 456.523 277.383 466.364 232.348ZM157.289 237.852C121.044 238.019 84.7829 242.022 49.6221 261.871C88.9361 278.884 149.1 279.051 191.65 265.708C187.146 256.534 182.643 247.193 178.306 238.019C173.802 237.852 169.132 237.852 164.545 237.852H157.289ZM522.741 277.383C463.529 303.737 426.5 345.603 393.807 389.638C403.815 402.481 414.157 415.324 424.665 428.001C470.868 388.303 512.233 328.59 522.741 277.383ZM198.321 304.404C153.553 304.238 108.118 308.241 60.8475 334.261C104.682 355.611 177.472 354.777 229.513 336.93C223.341 326.088 217.503 315.413 211.665 304.571C207.162 304.404 202.825 304.404 198.321 304.404ZM592.463 333.26C526.411 362.783 488.048 411.154 452.353 460.86C462.027 472.035 471.702 483.211 481.543 494.219C532.749 455.189 580.954 389.137 592.463 333.26ZM225.009 365.619C180.307 365.619 134.755 369.455 87.5183 395.475C133.638 417.826 211.665 415.991 263.873 395.309C257.868 385.634 252.03 375.793 246.192 365.952C239.187 365.786 232.181 365.619 225.009 365.619ZM661.35 379.63C588.793 412.656 546.76 467.031 507.563 522.908C518.738 534.751 529.914 546.593 541.256 558.269C596.966 514.735 648.84 441.678 661.35 379.63ZM736.742 425.499C654.845 464.196 611.311 525.243 569.278 586.458C580.453 597.466 591.795 608.475 603.138 619.15C666.02 573.948 725.733 492.384 736.742 425.499ZM284.889 428.501C223.341 431.003 161.359 436.174 100.028 475.538C157.289 498.556 247.86 491.884 309.575 465.864C301.235 453.521 292.895 441.011 284.889 428.501ZM811.133 467.031C726.067 511.233 681.866 581.621 638.665 651.509C651.008 662.517 663.518 673.359 676.195 683.867C739.744 633.161 799.958 542.09 811.133 467.031ZM338.097 506.229C270.711 511.733 202.658 516.904 137.207 563.106C200.323 585.124 300.735 570.779 360.281 536.586C352.775 526.578 345.436 516.403 338.097 506.229ZM823.977 571.446C769.1 614.146 743.747 657.513 709.888 711.222C724.566 722.731 739.244 733.906 754.089 744.581C783.278 720.563 801.125 689.372 823.977 655.679V571.446ZM394.975 580.954C324.754 596.966 254.198 614.146 193.151 672.025C262.371 685.202 362.616 658.181 423.664 615.814C413.99 604.472 404.316 592.796 394.975 580.954ZM454.188 650.841C384.634 674.36 314.746 699.88 256.033 767.266C326.255 775.272 425.999 736.575 486.213 685.368C475.371 674.193 464.696 662.517 454.188 650.841ZM529.914 729.069C458.024 747.25 386.302 767.599 323.92 823.977H441.678C489.215 811.467 535.418 790.617 569.945 765.598C556.601 753.922 543.257 741.746 529.914 729.069ZM607.307 796.455C581.287 804.628 555.1 813.135 529.58 823.977H644.336C631.993 815.303 619.65 806.129 607.307 796.455Z" fill="#8C0327"/>
</svg>
